<svg xmlns="http://www.w3.org/2000/svg" viewBox="1.51 -75.98 474.28 100.00" width="474.28" height="100.00" role="img" aria-label="{A}impact">
  <title>{A}impact</title>
  <g fill="#1b1c1a"><path d="M90.09 0 84.91 -16.99H58.89L53.71 0H37.4L62.6 -71.68H81.11L106.4 0ZM81.3 -29.69 76.12 -46.29Q75.64 -47.95 74.83 -50.56Q74.03 -53.17 73.22 -55.88Q72.41 -58.59 71.93 -60.6Q71.44 -58.59 70.58 -55.64Q69.73 -52.69 68.95 -50.05Q68.17 -47.41 67.82 -46.29L62.7 -29.69Z M164.51 -54.59V0H149.62V-54.59ZM157.09 -75.98Q160.41 -75.98 162.8 -74.44Q165.19 -72.9 165.19 -68.7Q165.19 -64.55 162.8 -62.96Q160.41 -61.38 157.09 -61.38Q153.72 -61.38 151.35 -62.96Q148.98 -64.55 148.98 -68.7Q148.98 -72.9 151.35 -74.44Q153.72 -75.98 157.09 -75.98Z M242.24 -55.62Q251.52 -55.62 256.28 -50.85Q261.04 -46.09 261.04 -35.6V0H246.1V-31.88Q246.1 -37.74 244.1 -40.72Q242.1 -43.7 237.9 -43.7Q231.99 -43.7 229.5 -39.48Q227.01 -35.25 227.01 -27.39V0H212.12V-31.88Q212.12 -35.79 211.24 -38.43Q210.36 -41.06 208.55 -42.38Q206.75 -43.7 203.91 -43.7Q199.76 -43.7 197.4 -41.63Q195.03 -39.55 194.03 -35.52Q193.03 -31.49 193.03 -25.68V0H178.13V-54.59H189.51L191.51 -47.61H192.34Q194 -50.44 196.52 -52.2Q199.03 -53.96 202.06 -54.79Q205.09 -55.62 208.21 -55.62Q214.22 -55.62 218.39 -53.66Q222.57 -51.71 224.81 -47.61H226.13Q228.57 -51.81 233.04 -53.71Q237.51 -55.62 242.24 -55.62Z M304.7 -55.62Q313.93 -55.62 319.61 -48.44Q325.3 -41.26 325.3 -27.39Q325.3 -18.12 322.62 -11.79Q319.93 -5.47 315.2 -2.25Q310.46 0.98 304.31 0.98Q300.35 0.98 297.52 -0.02Q294.69 -1.03 292.69 -2.61Q290.68 -4.2 289.22 -6.01H288.44Q288.83 -4.05 289.02 -2Q289.22 0.05 289.22 2V24.02H274.33V-54.59H286.44L288.54 -47.51H289.22Q290.68 -49.71 292.78 -51.56Q294.88 -53.42 297.84 -54.52Q300.79 -55.62 304.7 -55.62ZM299.91 -43.7Q296.01 -43.7 293.71 -42.09Q291.42 -40.48 290.37 -37.26Q289.32 -34.03 289.22 -29.1V-27.49Q289.22 -22.22 290.22 -18.55Q291.22 -14.89 293.59 -12.99Q295.96 -11.08 300.11 -11.08Q303.53 -11.08 305.72 -12.99Q307.92 -14.89 309.02 -18.58Q310.12 -22.27 310.12 -27.59Q310.12 -35.6 307.63 -39.65Q305.14 -43.7 299.91 -43.7Z M357.97 -55.71Q368.96 -55.71 374.82 -50.93Q380.68 -46.14 380.68 -36.38V0H370.28L367.39 -7.42H367Q364.66 -4.49 362.22 -2.64Q359.78 -0.78 356.6 0.1Q353.43 0.98 348.89 0.98Q344.05 0.98 340.22 -0.88Q336.39 -2.73 334.19 -6.57Q331.99 -10.4 331.99 -16.31Q331.99 -25 338.1 -29.13Q344.2 -33.25 356.41 -33.69L365.88 -33.98V-36.38Q365.88 -40.67 363.63 -42.68Q361.39 -44.68 357.38 -44.68Q353.43 -44.68 349.62 -43.55Q345.81 -42.43 342 -40.72L337.07 -50.78Q341.42 -53.08 346.81 -54.39Q352.21 -55.71 357.97 -55.71ZM365.88 -25.29 360.12 -25.1Q352.89 -24.9 350.08 -22.51Q347.28 -20.12 347.28 -16.21Q347.28 -12.79 349.28 -11.35Q351.28 -9.91 354.5 -9.91Q359.29 -9.91 362.58 -12.74Q365.88 -15.58 365.88 -20.8Z M416.18 0.98Q408.07 0.98 402.36 -1.98Q396.64 -4.93 393.67 -11.13Q390.69 -17.33 390.69 -27Q390.69 -37.01 394.08 -43.33Q397.47 -49.66 403.5 -52.64Q409.54 -55.62 417.49 -55.62Q423.16 -55.62 427.28 -54.52Q431.41 -53.42 434.49 -51.9L430.09 -40.38Q426.58 -41.8 423.55 -42.7Q420.52 -43.6 417.49 -43.6Q413.59 -43.6 411 -41.77Q408.41 -39.94 407.14 -36.28Q405.87 -32.62 405.87 -27.1Q405.87 -21.68 407.24 -18.12Q408.61 -14.55 411.2 -12.82Q413.78 -11.08 417.49 -11.08Q422.13 -11.08 425.75 -12.33Q429.36 -13.57 432.78 -15.82V-3.08Q429.36 -0.93 425.62 0.02Q421.89 0.98 416.18 0.98Z M466.42 -10.89Q468.86 -10.89 471.18 -11.38Q473.5 -11.87 475.8 -12.6V-1.51Q473.4 -0.44 469.86 0.27Q466.32 0.98 462.12 0.98Q457.24 0.98 453.36 -0.61Q449.48 -2.2 447.26 -6.13Q445.04 -10.06 445.04 -17.09V-43.41H437.91V-49.71L446.11 -54.69L450.41 -66.21H459.93V-54.59H475.21V-43.41H459.93V-17.09Q459.93 -13.96 461.71 -12.43Q463.49 -10.89 466.42 -10.89Z"/></g>
  <g fill="#0f7a6e"><path d="M35.4 15.82Q26.86 15.82 22.22 14.43Q17.58 13.04 15.8 10.01Q14.01 6.98 14.01 2.2V-13.18Q14.01 -16.36 12.57 -18.26Q11.13 -20.17 8.35 -21.04Q5.57 -21.92 1.51 -21.92V-33.59Q5.57 -33.59 8.35 -34.45Q11.13 -35.3 12.57 -37.23Q14.01 -39.16 14.01 -42.29V-57.81Q14.01 -62.6 15.8 -65.6Q17.58 -68.6 22.22 -70Q26.86 -71.39 35.4 -71.39V-60.4Q32.81 -60.35 30.88 -59.79Q28.96 -59.23 27.93 -57.76Q26.9 -56.3 26.9 -53.52V-38.92Q26.9 -34.33 23.97 -31.62Q21.04 -28.91 15.48 -28.08V-27.49Q21.04 -26.71 23.97 -24Q26.9 -21.29 26.9 -16.7V-2.1Q26.9 0.68 27.93 2.17Q28.96 3.66 30.88 4.2Q32.81 4.74 35.4 4.79Z M108.4 15.82V4.79Q110.99 4.74 112.89 4.2Q114.8 3.66 115.85 2.17Q116.9 0.68 116.9 -2.1V-16.7Q116.9 -21.29 119.83 -24Q122.76 -26.71 128.28 -27.49V-28.08Q122.76 -28.91 119.83 -31.62Q116.9 -34.33 116.9 -38.92V-53.52Q116.9 -56.3 115.85 -57.76Q114.8 -59.23 112.89 -59.79Q110.99 -60.35 108.4 -60.4V-71.39Q116.95 -71.39 121.59 -70Q126.22 -68.6 128.01 -65.6Q129.79 -62.6 129.79 -57.81V-42.29Q129.79 -39.16 131.23 -37.23Q132.67 -35.3 135.45 -34.45Q138.24 -33.59 142.29 -33.59V-21.92Q138.24 -21.92 135.45 -21.04Q132.67 -20.17 131.23 -18.26Q129.79 -16.36 129.79 -13.18V2.2Q129.79 6.98 128.01 10.01Q126.22 13.04 121.59 14.43Q116.95 15.82 108.4 15.82Z"/></g>
</svg>
